<svg version="1.1" viewBox="0.0 0.0 934.8477690288714 356.0603674540682" fill="none" stroke="none" stroke-linecap="square" stroke-miterlimit="10" xmlns:xlink="http://www.w3.org/1999/xlink" xmlns="http://www.w3.org/2000/svg"><clipPath id="p.0"><path d="m0 0l934.8478 0l0 356.06036l-934.8478 0l0 -356.06036z" clip-rule="nonzero"/></clipPath><g clip-path="url(#p.0)"><path fill="#000000" fill-opacity="0.0" d="m0 0l934.8478 0l0 356.06036l-934.8478 0z" fill-rule="evenodd"/><path fill="#000000" fill-opacity="0.0" d="m25.37664 47.981247l0 0c0 -9.382832 7.606289 -16.98912 16.98912 -16.98912l254.02176 0c4.5057983 0 8.827057 1.7899208 12.013123 4.975998c3.1860962 3.186077 4.976013 7.507328 4.976013 12.013123l0 254.02177c0 9.3828125 -7.6062927 16.989105 -16.989136 16.989105l-254.02176 0c-9.382832 0 -16.98912 -7.6062927 -16.98912 -16.989105z" fill-rule="evenodd"/><path stroke="#000000" stroke-width="12.0" stroke-linejoin="round" stroke-linecap="butt" d="m25.37664 47.981247l0 0c0 -9.382832 7.606289 -16.98912 16.98912 -16.98912l254.02176 0c4.5057983 0 8.827057 1.7899208 12.013123 4.975998c3.1860962 3.186077 4.976013 7.507328 4.976013 12.013123l0 254.02177c0 9.3828125 -7.6062927 16.989105 -16.989136 16.989105l-254.02176 0c-9.382832 0 -16.98912 -7.6062927 -16.98912 -16.989105z" fill-rule="evenodd"/><path fill="#000000" d="m57.182415 79.31233l0 0c0 -8.479958 6.8743706 -15.354328 15.354328 -15.354328l0 0c4.0722275 0 7.977661 1.6176872 10.857155 4.497181c2.8794937 2.8794937 4.497177 6.7849274 4.497177 10.857147l0 0c0 8.479965 -6.8743668 15.354332 -15.354332 15.354332l0 0c-8.479958 0 -15.354328 -6.8743668 -15.354328 -15.354332z" fill-rule="evenodd"/><path stroke="#000000" stroke-width="4.0" stroke-linejoin="round" stroke-linecap="butt" d="m57.182415 79.31233l0 0c0 -8.479958 6.8743706 -15.354328 15.354328 -15.354328l0 0c4.0722275 0 7.977661 1.6176872 10.857155 4.497181c2.8794937 2.8794937 4.497177 6.7849274 4.497177 10.857147l0 0c0 8.479965 -6.8743668 15.354332 -15.354332 15.354332l0 0c-8.479958 0 -15.354328 -6.8743668 -15.354328 -15.354332z" fill-rule="evenodd"/><path fill="#000000" fill-opacity="0.0" d="m351.79135 83.06036l566.7716 0l0 180.97638l-566.7716 0z" fill-rule="evenodd"/><path fill="#000000" d="m387.99448 222.06036q-12.671875 0 -23.203125 -6.140625l0.40625 -16.265625l10.65625 0l2.265625 13.203125q2.40625 0.9375 4.796875 1.40625q2.40625 0.46875 5.203125 0.46875q5.734375 0 8.796875 -1.9375q3.078125 -1.9375 3.078125 -5.9375q0 -3.0625 -2.265625 -5.328125q-2.265625 -2.265625 -8.9375 -4.140625l-7.203125 -2.125q-7.734375 -2.265625 -11.9375 -7.328125q-4.1875 -5.078125 -4.1875 -12.546875q0 -9.1875 7.1875 -15.515625q7.203125 -6.34375 20.671875 -6.34375q5.875 0 10.859375 1.40625q5.0 1.390625 10.203125 4.0625l-0.921875 14.53125l-10.671875 0l-2.671875 -11.46875q-2.796875 -1.0625 -7.328125 -1.0625q-4.53125 0 -7.265625 1.875q-2.734375 1.859375 -2.734375 5.59375q0 2.65625 2.125 4.734375q2.140625 2.0625 9.078125 4.1875l6.53125 1.875q9.46875 2.796875 13.59375 8.0q4.140625 5.203125 4.140625 12.671875q0 10.53125 -8.078125 16.328125q-8.0625 5.796875 -22.1875 5.796875zm70.39871 0q-9.078125 0 -16.609375 -3.796875q-7.53125 -3.796875 -12.0625 -11.390625q-4.53125 -7.609375 -4.53125 -18.8125q0 -10.9375 4.859375 -18.65625q4.875 -7.734375 13.0625 -11.796875q8.203125 -4.078125 18.078125 -4.078125q7.0625 0 12.53125 2.671875q5.46875 2.65625 8.734375 7.0625q3.265625 4.40625 3.671875 9.734375q-2.140625 6.9375 -9.078125 6.9375q-3.859375 0 -6.796875 -2.796875q-2.9375 -2.8125 -3.328125 -9.875l-0.9375 -6.671875q-0.53125 -0.125 -1.203125 -0.125q-0.65625 0 -1.328125 0q-3.734375 0 -7.46875 2.53125q-3.734375 2.53125 -6.140625 8.0q-2.390625 5.46875 -2.390625 14.53125q0 11.46875 5.125 17.671875q5.140625 6.1875 13.546875 6.1875q4.796875 0 8.390625 -2.0625q3.609375 -2.0625 6.53125 -5.390625l4.671875 4.125q-3.875 8.140625 -10.875 12.078125q-7.0 3.921875 -16.453125 3.921875zm35.45987 -2.0l0 -6.265625l7.203125 -1.59375q0.125 -4.8125 0.125 -10.40625q0 -5.59375 0 -9.734375l0 -6.40625q0 -5.453125 -0.0625 -9.125q-0.0625 -3.671875 -0.328125 -7.671875l-8.265625 -1.1875l0 -5.203125l27.99997 -8.9375l2.265625 1.46875l-0.40625 19.328125l0 17.734375q0 4.140625 0 9.8125q0 5.65625 0.140625 10.59375l6.65625 1.328125l0 6.265625l-35.328094 0zm17.734375 -76.390625q-4.671875 0 -8.0 -3.0q-3.328125 -3.0 -3.328125 -7.546875q0 -4.65625 3.328125 -7.65625q3.328125 -3.0 8.0 -3.0q4.6718445 0 7.9999695 3.0q3.328125 3.0 3.328125 7.65625q0 4.546875 -3.328125 7.546875q-3.328125 3.0 -7.9999695 3.0zm23.866058 76.390625l0 -6.265625l7.46875 -1.59375q0.125 -4.9375 0.125 -10.53125q0 -5.609375 0 -9.609375l0 -55.859375l-8.265625 -1.34375l0 -5.59375l28.0 -6.0l2.140625 1.328125l-0.53125 18.671875l0 40.9375l21.59375 -21.078125l-10.140625 -1.59375l0 -5.859375l32.140625 0l0 5.859375l-12.0 1.734375l-11.734375 11.0625l18.796875 37.46875l8.53125 2.0l0 6.265625l-27.203125 0l-15.0625 -31.859375l-4.921875 4.65625q0 4.40625 0.0625 9.671875q0.0625 5.265625 0.0625 9.796875l7.203125 1.46875l0 6.265625l-36.265625 0zm80.261536 0l0 -6.265625l7.203125 -1.59375q0.125 -4.8125 0.125 -10.40625q0 -5.59375 0 -9.734375l0 -6.40625q0 -5.453125 -0.0625 -9.125q-0.0625 -3.671875 -0.328125 -7.671875l-8.265625 -1.1875l0 -5.203125l28.0 -8.9375l2.265625 1.46875l-0.40625 19.328125l0 17.734375q0 4.140625 0 9.8125q0 5.65625 0.140625 10.59375l6.65625 1.328125l0 6.265625l-35.328125 0zm17.734375 -76.390625q-4.671875 0 -8.0 -3.0q-3.328125 -3.0 -3.328125 -7.546875q0 -4.65625 3.328125 -7.65625q3.328125 -3.0 8.0 -3.0q4.671875 0 8.0 3.0q3.328125 3.0 3.328125 7.65625q0 4.546875 -3.328125 7.546875q-3.328125 3.0 -8.0 3.0zm49.45984 78.390625q-8.9375 0 -14.0 -4.328125q-5.0625 -4.34375 -5.0625 -14.203125q0 -3.46875 0.0625 -6.46875q0.078125 -3.0 0.078125 -6.859375l0 -25.46875l-8.671875 0l0 -7.875l9.859375 -1.328125l6.671875 -18.671875l13.59375 0l-0.265625 18.8125l14.0 0l0 9.0625l-14.0 0l0 37.328125q0 4.671875 1.9375 6.875q1.9375 2.1875 4.859375 2.1875q3.46875 0 7.203125 -2.921875l3.34375 3.1875q-2.671875 5.078125 -7.40625 7.875q-4.734375 2.796875 -12.203125 2.796875zm21.063782 -29.859375l0 -12.0l34.53125 0l0 12.0l-34.53125 0zm43.604492 27.859375l0 -6.265625l7.203125 -1.59375q0.125 -4.8125 0.125 -10.40625q0 -5.59375 0 -9.734375l0 -7.734375q0 -5.46875 -0.0625 -8.46875q-0.0625 -3.0 -0.328125 -7.0l-8.140625 -1.1875l0 -5.203125l26.265625 -8.9375l2.40625 1.46875l0.796875 9.59375q5.203125 -6.125 10.328125 -8.59375q5.140625 -2.46875 11.0 -2.46875q8.671875 0 13.9375 5.734375q5.265625 5.734375 5.265625 17.203125l0 15.59375q0 4.40625 0 9.9375q0 5.53125 0.125 10.46875l6.671875 1.328125l0 6.265625l-35.203125 0l0 -6.265625l6.9375 -1.46875q0.140625 -4.9375 0.140625 -10.46875q0 -5.53125 0 -9.796875l0 -14.0q0 -6.390625 -1.734375 -8.984375q-1.734375 -2.609375 -5.609375 -2.609375q-5.1875 0 -11.453125 4.796875l0 20.796875q0 4.140625 0 9.8125q0 5.65625 0.125 10.59375l6.265625 1.328125l0 6.265625l-35.0625 0zm132.79059 1.859375q-11.59375 0 -14.65625 -9.59375q-4.265625 4.53125 -8.203125 7.140625q-3.9375 2.59375 -10.875 2.59375q-7.734375 0 -12.59375 -4.390625q-4.859375 -4.40625 -4.859375 -12.671875q0 -4.796875 2.125 -8.65625q2.140625 -3.875 7.734375 -7.203125q5.59375 -3.34375 15.859375 -6.28125q2.0 -0.65625 4.671875 -1.328125q2.671875 -0.671875 5.46875 -1.328125l0 -4.40625q0 -8.9375 -2.203125 -12.125q-2.203125 -3.203125 -8.59375 -3.203125q-0.9375 0 -1.734375 0q-0.796875 0 -1.875 0.125l-0.65625 5.875q-0.140625 6.53125 -3.015625 9.46875q-2.859375 2.921875 -6.71875 2.921875q-7.34375 0 -8.9375 -6.65625q0.53125 -8.265625 8.390625 -13.46875q7.875 -5.203125 22.28125 -5.203125q12.796875 0 18.328125 5.875q5.53125 5.859375 5.53125 19.328125l0 29.859375q0 3.875 2.9375 3.875q1.0625 0 2.0 -0.59375q0.9375 -0.609375 2.0 -2.34375l3.59375 2.390625q-2.390625 5.34375 -6.203125 7.671875q-3.796875 2.328125 -9.796875 2.328125zm-31.46875 -20.390625q0 4.9375 2.328125 7.34375q2.34375 2.390625 5.671875 2.390625q1.46875 0 3.0625 -0.671875q1.609375 -0.671875 5.078125 -3.0625l0 -21.59375q-1.734375 0.53125 -3.40625 1.125q-1.65625 0.59375 -2.859375 1.140625q-4.53125 1.859375 -7.203125 5.265625q-2.671875 3.390625 -2.671875 8.0625z" fill-rule="nonzero"/><path fill="#000000" fill-opacity="0.0" d="m121.37664 30.992126l0 287.937" fill-rule="evenodd"/><path stroke="#000000" stroke-width="12.0" stroke-linejoin="round" stroke-linecap="butt" d="m121.37664 30.992126l0 287.937" fill-rule="evenodd"/><path fill="#000000" fill-opacity="0.0" d="m217.37665 31.023623l0 287.937" fill-rule="evenodd"/><path stroke="#000000" stroke-width="12.0" stroke-linejoin="round" stroke-linecap="butt" d="m217.37665 31.023623l0 287.937" fill-rule="evenodd"/><path fill="#000000" fill-opacity="0.0" d="m313.37402 126.99213l-288.0 0" fill-rule="evenodd"/><path stroke="#000000" stroke-width="12.0" stroke-linejoin="round" stroke-linecap="butt" d="m313.37402 126.99213l-288.0 0" fill-rule="evenodd"/><path fill="#000000" fill-opacity="0.0" d="m313.37665 222.99213l-288.0 0" fill-rule="evenodd"/><path stroke="#000000" stroke-width="12.0" stroke-linejoin="round" stroke-linecap="butt" d="m313.37665 222.99213l-288.0 0" fill-rule="evenodd"/><path fill="#000000" fill-opacity="0.0" d="m224.67323 38.09974l83.086624 0l0 82.42519l-83.086624 0z" fill-rule="evenodd"/><path fill="#ff0000" d="m237.11073 97.01974l0 -33.90625l7.84375 0l7.125 16.84375l2.90625 7.5l0.21875 0q-0.265625 -2.703125 -0.6875 -6.03125q-0.40625 -3.328125 -0.40625 -6.296875l0 -12.015625l7.3281097 0l0 33.90625l-7.8437347 0l-7.125 -16.90625l-2.921875 -7.375l-0.203125 0q0.265625 2.75 0.671875 6.0q0.421875 3.25 0.421875 6.265625l0 12.015625l-7.328125 0zm28.231277 0l10.5625 -33.90625l9.140625 0l10.5625 33.90625l-8.109375 0l-4.375 -17.15625q-0.625 -2.546875 -1.359375 -5.40625q-0.71875 -2.859375 -1.34375 -5.515625l-0.203125 0q-0.625 2.65625 -1.3125 5.515625q-0.671875 2.859375 -1.34375 5.40625l-4.421875 17.15625l-7.796875 0zm6.96875 -8.0625l0 -5.984375l16.21875 0l0 5.984375l-16.21875 0z" fill-rule="nonzero"/><path fill="#000000" d="m57.182415 174.99213l0 0c0 -8.479965 6.8743706 -15.354324 15.354328 -15.354324l0 0c4.0722275 0 7.977661 1.6176758 10.857155 4.497177c2.8794937 2.879486 4.497177 6.7849274 4.497177 10.857147l0 0c0 8.479965 -6.8743668 15.354324 -15.354332 15.354324l0 0c-8.479958 0 -15.354328 -6.874359 -15.354328 -15.354324z" fill-rule="evenodd"/><path stroke="#000000" stroke-width="4.0" stroke-linejoin="round" stroke-linecap="butt" d="m57.182415 174.99213l0 0c0 -8.479965 6.8743706 -15.354324 15.354328 -15.354324l0 0c4.0722275 0 7.977661 1.6176758 10.857155 4.497177c2.8794937 2.879486 4.497177 6.7849274 4.497177 10.857147l0 0c0 8.479965 -6.8743668 15.354324 -15.354332 15.354324l0 0c-8.479958 0 -15.354328 -6.874359 -15.354328 -15.354324z" fill-rule="evenodd"/><path fill="#000000" d="m57.182415 270.6719l0 0c0 -8.47995 6.8743706 -15.354324 15.354328 -15.354324l0 0c4.0722275 0 7.977661 1.617691 10.857155 4.497177c2.8794937 2.8795166 4.497177 6.7849426 4.497177 10.857147l0 0c0 8.47998 -6.8743668 15.35434 -15.354332 15.35434l0 0c-8.479958 0 -15.354328 -6.874359 -15.354328 -15.35434z" fill-rule="evenodd"/><path stroke="#000000" stroke-width="4.0" stroke-linejoin="round" stroke-linecap="butt" d="m57.182415 270.6719l0 0c0 -8.47995 6.8743706 -15.354324 15.354328 -15.354324l0 0c4.0722275 0 7.977661 1.617691 10.857155 4.497177c2.8794937 2.8795166 4.497177 6.7849426 4.497177 10.857147l0 0c0 8.47998 -6.8743668 15.35434 -15.354332 15.35434l0 0c-8.479958 0 -15.354328 -6.874359 -15.354328 -15.35434z" fill-rule="evenodd"/><path fill="#000000" fill-opacity="0.0" d="m127.833336 133.77953l83.08662 0l0 82.4252l-83.08662 0z" fill-rule="evenodd"/><path fill="#ff0000" d="m140.27083 192.69952l0 -33.90625l7.84375 0l7.125 16.84375l2.90625 7.5l0.21875 0q-0.265625 -2.703125 -0.6875 -6.03125q-0.40625 -3.328125 -0.40625 -6.296875l0 -12.015625l7.328125 0l0 33.90625l-7.84375 0l-7.125 -16.90625l-2.921875 -7.375l-0.203125 0q0.265625 2.75 0.671875 6.0q0.421875 3.25 0.421875 6.265625l0 12.015625l-7.328125 0zm28.231277 0l10.5625 -33.90625l9.140625 0l10.5625 33.90625l-8.109375 0l-4.375 -17.15625q-0.625 -2.546875 -1.359375 -5.40625q-0.71875 -2.859375 -1.34375 -5.515625l-0.203125 0q-0.625 2.65625 -1.3125 5.515625q-0.671875 2.859375 -1.34375 5.40625l-4.421875 17.15625l-7.796875 0zm6.96875 -8.0625l0 -5.984375l16.21875 0l0 5.984375l-16.21875 0z" fill-rule="nonzero"/><path fill="#000000" fill-opacity="0.0" d="m224.67323 229.45932l83.086624 0l0 82.4252l-83.086624 0z" fill-rule="evenodd"/><path fill="#ff0000" d="m237.11073 288.3793l0 -33.906235l7.84375 0l7.125 16.843735l2.90625 7.5l0.21875 0q-0.265625 -2.703125 -0.6875 -6.03125q-0.40625 -3.328125 -0.40625 -6.296875l0 -12.01561l7.3281097 0l0 33.906235l-7.8437347 0l-7.125 -16.90625l-2.921875 -7.375l-0.203125 0q0.265625 2.75 0.671875 6.0q0.421875 3.25 0.421875 6.265625l0 12.015625l-7.328125 0zm28.231277 0l10.5625 -33.906235l9.140625 0l10.5625 33.906235l-8.109375 0l-4.375 -17.15625q-0.625 -2.546875 -1.359375 -5.40625q-0.71875 -2.859375 -1.34375 -5.515625l-0.203125 0q-0.625 2.65625 -1.3125 5.515625q-0.671875 2.859375 -1.34375 5.40625l-4.421875 17.15625l-7.796875 0zm6.96875 -8.0625l0 -5.984375l16.21875 0l0 5.984375l-16.21875 0z" fill-rule="nonzero"/><path fill="#000000" d="m157.67061 270.6719l0 0c0 -8.47995 6.874359 -15.354324 15.354324 -15.354324l0 0c4.07222 0 7.977661 1.617691 10.857147 4.497177c2.8795013 2.8795166 4.4971924 6.7849426 4.4971924 10.857147l0 0c0 8.47998 -6.8743744 15.35434 -15.35434 15.35434l0 0c-8.479965 0 -15.354324 -6.874359 -15.354324 -15.35434z" fill-rule="evenodd"/><path stroke="#000000" stroke-width="4.0" stroke-linejoin="round" stroke-linecap="butt" d="m157.67061 270.6719l0 0c0 -8.47995 6.874359 -15.354324 15.354324 -15.354324l0 0c4.07222 0 7.977661 1.617691 10.857147 4.497177c2.8795013 2.8795166 4.4971924 6.7849426 4.4971924 10.857147l0 0c0 8.47998 -6.8743744 15.35434 -15.35434 15.35434l0 0c-8.479965 0 -15.354324 -6.874359 -15.354324 -15.35434z" fill-rule="evenodd"/><path fill="#000000" d="m157.67061 79.31233l0 0c0 -8.479958 6.874359 -15.354328 15.354324 -15.354328l0 0c4.07222 0 7.977661 1.6176872 10.857147 4.497181c2.8795013 2.8794937 4.4971924 6.7849274 4.4971924 10.857147l0 0c0 8.479965 -6.8743744 15.354332 -15.35434 15.354332l0 0c-8.479965 0 -15.354324 -6.8743668 -15.354324 -15.354332z" fill-rule="evenodd"/><path stroke="#000000" stroke-width="4.0" stroke-linejoin="round" stroke-linecap="butt" d="m157.67061 79.31233l0 0c0 -8.479958 6.874359 -15.354328 15.354324 -15.354328l0 0c4.07222 0 7.977661 1.6176872 10.857147 4.497181c2.8795013 2.8794937 4.4971924 6.7849274 4.4971924 10.857147l0 0c0 8.479965 -6.8743744 15.354332 -15.35434 15.354332l0 0c-8.479965 0 -15.354324 -6.8743668 -15.354324 -15.354332z" fill-rule="evenodd"/><path fill="#000000" d="m250.8622 174.99213l0 0c0 -8.479965 6.8743744 -15.354324 15.354324 -15.354324l0 0c4.072235 0 7.977661 1.6176758 10.857178 4.497177c2.879486 2.879486 4.497162 6.7849274 4.497162 10.857147l0 0c0 8.479965 -6.874359 15.354324 -15.35434 15.354324l0 0c-8.47995 0 -15.354324 -6.874359 -15.354324 -15.354324z" fill-rule="evenodd"/><path stroke="#000000" stroke-width="4.0" stroke-linejoin="round" stroke-linecap="butt" d="m250.8622 174.99213l0 0c0 -8.479965 6.8743744 -15.354324 15.354324 -15.354324l0 0c4.072235 0 7.977661 1.6176758 10.857178 4.497177c2.879486 2.879486 4.497162 6.7849274 4.497162 10.857147l0 0c0 8.479965 -6.874359 15.354324 -15.35434 15.354324l0 0c-8.47995 0 -15.354324 -6.874359 -15.354324 -15.354324z" fill-rule="evenodd"/></g></svg>